# xmcd
#
# Track frame offsets:
#  150
#  39347
#  73954
#  110029
#  130873
#  166587
#  208198
#  246373
#  259742
#
# Disc length: 3681 seconds
#
# Revision: 0
# Processed by: cddbd v1.4PL0 Copyright (c) Steve Scherf et al.
# Submitted via: AltoMP3_Maker 3.0
#
DISCID=830e5f09
DTITLE=Anil Sharma - Aaye Tere Sharan Mein
DYEAR=1900
DGENRE=
TTITLE0=Diyare Ke Bati
TTITLE1=Koi Roye Koi Gaye
TTITLE2=Samay Bada Balawan
TTITLE3=Nitya Nirantar Bolo
TTITLE4=Chahe Dekho Jal Mein
TTITLE5=Mere Bhool Chhama Kar
TTITLE6=Dekh Zara Bhagwan
TTITLE7=Jo Ugta Hai (Part 1)
TTITLE8=Jo Ugta Hai (Part 2)
EXTD=
EXTT0=
EXTT1=
EXTT2=
EXTT3=
EXTT4=
EXTT5=
EXTT6=
EXTT7=
EXTT8=
PLAYORDER=
